<svg xmlns="http://www.w3.org/2000/svg" viewBox="0 0 1920 448.6"><defs><style>.a{fill:#fff;}.b{fill:#160d0d;}</style></defs><title>web-ruuvi-logo</title><path class="a" d="M1899,535.79c0,110.46-91.43,200-204.2,200s-204.22-89.55-204.22-200,91.43-200,204.22-200S1899,425.34,1899,535.79Z" transform="translate(0 -312.46)"/><path class="b" d="M1695.71,354.75a182,182,0,1,1-182,182A181.69,181.69,0,0,1,1695.71,354.75Zm0-42.28c-123.62,0-224.29,100.67-224.29,224.29s100.67,224.31,224.29,224.31S1920,660.38,1920,536.76,1819.34,312.46,1695.71,312.46Z" transform="translate(0 -312.46)"/><path class="b" d="M1361.21,726.44c-10.71-1.05-22-6.47-28.06-13.4-6.09-7.7-7.32-11.94-8.85-17.88-1.44-6.64-1.14-9.66-1.14-81.64,0-86.36,0-78.46,4.69-91,3.11-6.33,10.22-13.57,16.62-16.91,9.11-4.75,19.88-6.46,31.89-5.07,23.73,2.76,34.69,14.07,36.87,38,.45,4.88.59,32.7.46,79.47-.24,71.58-.24,68.27-1.61,76.93-3.6,12.77-10.56,21.48-21.64,27.07-7.18,3.61-19,5.4-29.22,4.4Zm-600.86,0c-42.63-2-79.51-19.18-107.86-50.29-20.71-22.71-33.19-48.12-38.24-77.91-2.53-14.91-2.76-25.86-2.53-120.54.24-101.62-1-90.48,5.22-104.24,5-10.23,14.71-17.88,26.91-21.11,6.46-1.73,20-1.53,26.77.37,15.39,4.35,26.22,15.46,30.49,31.23,1,3.67,1.12,12.62,1.44,100.19l.37,96.17c1.09,19.93,13.29,36.65,27.16,45.38,21.59,15.26,52.73,14.61,75.34,1.15,18.72-12.59,29.67-31.1,32-51,.41-3.64.65-39.75.65-96.7,0-100.73-.24-95.43,4.23-104.68,5.37-11.16,15.39-19.27,28.05-22.71,5.84-1.6,20.61-1.6,26.41,0A43.88,43.88,0,0,1,915.72,362c7.84,7.35,11.77,16.21,12.4,22.68v99.72c0,112,.26,106.24-4.83,126.23-7.83,30.83-24.9,58-50,79.53-30.63,26.26-68.14,38.29-112.94,36.21Zm-722.24,0c-10.71-1.05-22.11-6.5-28-13.4-3.32-3.87-7.4-12.08-8.88-17.88C-.35,687.86.05,684.53.05,592.54c0-76.81.17-99.58.84-104.89C5.25,452.59,19,423.34,42.49,398.84c29.59-30.77,65.55-46.77,108.9-48.43,11.87-.46,17.6.2,24.52,2.78a43.73,43.73,0,0,1,24.4,23.87c2.26,5.34,3.57,14.45,3.12,21.56-1.24,19.36-9.67,31.63-25.92,37.75-5.93,2.23-10.71,3.27-20.64,4.49-13.72,1.67-20.54,3.61-30.33,8.62-13.05,6.68-23.6,17-29.52,28.81a89,89,0,0,0-5.12,14.52C90.56,501,91,519,90.75,592.86c.5,86.68.71,93.37-1.8,102.21-3.61,12.81-10.43,21.31-21.63,27C60.15,725.65,48.31,727.43,38.1,726.44Zm1047.82-27c-3.14-6.27-115-290.28-116.55-295.83a35.72,35.72,0,0,1,0-22.11c4.49-14.91,18.39-27.41,34.41-30.94,10.67-2.36,24.12-.88,32.67,3.61,5.11,2.68,11.74,9.27,15.15,15,2.94,5,2.55,4,43.71,108.56,16,40.54,29.22,73.51,29.44,73.27s16-40.11,35.07-88.57c24.41-62.06,35.55-89.59,37.66-93.16,5.84-9.84,15.09-16.72,25.41-18.91,7.44-1.57,20-1,26.65,1.31a47.7,47.7,0,0,1,19.69,12.59c5.92,6,8.78,10.79,10.62,17.82,1.27,4.84,2.72,10.71,0,20.74-1.25,5.27-112.44,287.79-116.67,296.42-16.88,39.32-63.78,31.85-77.28.17Z" transform="translate(0 -312.46)"/><path class="b" d="M399.06,727.16c-42.63-2-79.51-19.18-107.86-50.29C270.48,654.16,258,628.73,253,599c-2.53-14.91-2.76-25.88-2.53-120.54.26-101.62-1-90.48,5.24-104.24,5-10.23,14.69-17.87,26.9-21.11,6.46-1.73,20-1.54,26.77.36,15.39,4.36,26.22,15.46,30.5,31.25,1,3.67,1.12,12.62,1.44,100.19l.38,96.17c1.09,19.93,13.3,36.65,27.16,45.38,21.6,15.26,52.74,14.61,75.35,1.15a68.45,68.45,0,0,0,32-51c.4-3.63.64-39.73.64-96.68,0-100.73-.24-95.43,4.25-104.68,5.35-11.15,15.37-19.27,28-22.71,5.86-1.6,20.61-1.6,26.41,0a43.57,43.57,0,0,1,18.94,10.37c7.84,7.35,11.79,16.21,12.42,22.68v99.72c0,112,.24,106.24-4.85,126.21-7.81,30.84-24.89,58-50,79.54-30.62,26.26-68.16,38.29-112.94,36.21Z" transform="translate(0 -312.46)"/><path class="b" d="M1424.27,405a56.85,56.85,0,1,1-56.84-56.84A56.84,56.84,0,0,1,1424.27,405Z" transform="translate(0 -312.46)"/><path class="b" d="M1742.3,654.58A117.55,117.55,0,0,0,1830.78,600a129,129,0,0,0,13.08-29,120.21,120.21,0,0,0-.7-68c-6.78-21.43-20.85-42.1-38.1-55.9a117.41,117.41,0,0,0-101.43-22.52c-2.94.72-5.5,1.37-5.68,1.41s.36,1.58,1.22,3.38a78.2,78.2,0,0,1,6.5,21.47,103.38,103.38,0,0,1,0,21.62,76.86,76.86,0,0,1-47.12,60c-11.87,4.72-27.21,6.56-38.75,4.66-2.2-.36-4.29-.66-4.63-.66-.52,0-.57,1.09-.36,6.59a116.82,116.82,0,0,0,55.9,94.9c15.43,9.45,31.94,14.84,51.42,16.8a176.69,176.69,0,0,0,20.16-.16Z" transform="translate(0 -312.46)"/></svg>